<?xml version="1.0" encoding="UTF-8" standalone="no"?>
<svg
   inkscape:version="1.3.2 (091e20ef0f, 2023-11-25)"
   sodipodi:docname="Helvum.svg"
   id="svg42"
   version="1.1"
   height="64"
   width="64"
   xml:space="preserve"
   xmlns:inkscape="http://www.inkscape.org/namespaces/inkscape"
   xmlns:sodipodi="http://sodipodi.sourceforge.net/DTD/sodipodi-0.dtd"
   xmlns:xlink="http://www.w3.org/1999/xlink"
   xmlns="http://www.w3.org/2000/svg"
   xmlns:svg="http://www.w3.org/2000/svg"
   xmlns:rdf="http://www.w3.org/1999/02/22-rdf-syntax-ns#"
   xmlns:cc="http://creativecommons.org/ns#"
   xmlns:dc="http://purl.org/dc/elements/1.1/"><sodipodi:namedview
     inkscape:current-layer="svg42"
     inkscape:window-maximized="0"
     inkscape:window-y="20"
     inkscape:window-x="20"
     inkscape:cy="2.6249999"
     inkscape:cx="32.499999"
     inkscape:zoom="4.0000002"
     showgrid="false"
     id="namedview44"
     inkscape:window-height="1367"
     inkscape:window-width="1720"
     inkscape:pageshadow="2"
     inkscape:pageopacity="0"
     guidetolerance="10"
     gridtolerance="10"
     objecttolerance="10"
     borderopacity="1"
     bordercolor="#666666"
     pagecolor="#ffffff"
     inkscape:showpageshadow="0"
     inkscape:pagecheckerboard="1"
     inkscape:deskcolor="#505050" /><metadata
     id="metadata2"><rdf:RDF><cc:Work
         rdf:about=""><dc:format>image/svg+xml</dc:format><dc:type
           rdf:resource="http://purl.org/dc/dcmitype/StillImage" /></cc:Work></rdf:RDF></metadata><defs
     id="defs14"><linearGradient
       id="linearGradient7"
       inkscape:collect="always"><stop
         style="stop-color:#1da4d4;stop-opacity:1;"
         offset="0"
         id="stop10" /><stop
         style="stop-color:#1a5fb4;stop-opacity:1;"
         offset="1"
         id="stop12" /></linearGradient><linearGradient
       id="linearGradient1"
       inkscape:collect="always"><stop
         style="stop-color:#787898;stop-opacity:1;"
         offset="0"
         id="stop5" /><stop
         style="stop-color:#a8a7af;stop-opacity:1;"
         offset="1"
         id="stop6" /></linearGradient><style
       id="style4"
       type="text/css" /><filter
       color-interpolation-filters="sRGB"
       height="1.048"
       width="1.048"
       y="-.024"
       x="-.024"
       id="filter2761"><feGaussianBlur
         id="feGaussianBlur6"
         stdDeviation="0.14552168" /></filter><linearGradient
       gradientUnits="userSpaceOnUse"
       gradientTransform="matrix(3.7796,0,0,3.7796,110.07575,0.53066)"
       y2="1.1082"
       y1="15.429"
       x2="15.644"
       x1="1.2573"
       id="linearGradient4673"><stop
         id="stop9"
         offset="0"
         stop-color="#32dcff" /><stop
         id="stop11"
         offset="1"
         stop-color="#3296ff" /></linearGradient><linearGradient
       gradientUnits="userSpaceOnUse"
       gradientTransform="matrix(1.0000066,0,0,1.0000066,19.187825,0)"
       y2="1.0583"
       y1="6.879"
       x2="7.9373"
       x1="7.9373"
       id="linearGradient865"><stop
         id="stop2"
         offset="0"
         stop-color="#fff" /><stop
         id="stop4"
         offset="1"
         stop-color="#fcc" /></linearGradient><linearGradient
       gradientTransform="translate(19.187825)"
       gradientUnits="userSpaceOnUse"
       y2="3.9327"
       y1="14.579"
       x2="12.314"
       x1="2.6278"
       id="linearGradient855"><stop
         id="stop7"
         offset="0"
         stop-color="#d462aa" /><stop
         id="stop9-3"
         offset=".15178"
         stop-color="#56c7d9" /><stop
         id="stop11-6"
         offset=".33294"
         stop-color="#2da8b8" /><stop
         id="stop13"
         offset=".53353"
         stop-color="#72cb6b" /><stop
         id="stop15"
         offset=".71019"
         stop-color="#c4dc2b" /><stop
         id="stop17"
         offset=".8623"
         stop-color="#f9da3e" /><stop
         id="stop19"
         offset="1"
         stop-color="#f69429" /></linearGradient><linearGradient
       gradientUnits="userSpaceOnUse"
       gradientTransform="matrix(0.26458,0,0,0.26458,19.187825,0)"
       y2="6.9915"
       y1="19"
       x2="57.008"
       x1="45"
       id="linearGradient910"><stop
         id="stop22"
         offset="0"
         stop-color="#fff" /><stop
         id="stop24"
         offset="1"
         stop-color="#ffe3cc" /></linearGradient><filter
       inkscape:collect="always"
       style="color-interpolation-filters:sRGB"
       id="filter1057"
       x="-0.026999999"
       width="1.054"
       y="-0.026999999"
       height="1.054"><feGaussianBlur
         inkscape:collect="always"
         stdDeviation="0.61875"
         id="feGaussianBlur1059" /></filter><linearGradient
       inkscape:collect="always"
       xlink:href="#linearGradient1051"
       id="linearGradient1053"
       x1="-127"
       y1="60"
       x2="-72"
       y2="5"
       gradientUnits="userSpaceOnUse"
       gradientTransform="translate(131.5,-0.5099984)" /><linearGradient
       inkscape:collect="always"
       id="linearGradient1051"><stop
         style="stop-color:#daa57f;stop-opacity:1;"
         offset="0"
         id="stop1049" /><stop
         style="stop-color:#ed9b2a;stop-opacity:1;"
         offset="1"
         id="stop1047" /></linearGradient><style
       type="text/css"
       id="style872" /><filter
       id="filter2761-7"
       x="-.024"
       y="-.024"
       width="1.048"
       height="1.048"
       color-interpolation-filters="sRGB"><feGaussianBlur
         stdDeviation="0.14552168"
         id="feGaussianBlur874" /></filter><style
       id="style4-5"
       type="text/css" /><style
       id="style6"
       type="text/css" /><style
       id="style8"
       type="text/css" /><filter
       color-interpolation-filters="sRGB"
       height="1.048"
       width="1.048"
       y="-.024"
       x="-.024"
       id="filter2761-36"><feGaussianBlur
         id="feGaussianBlur10"
         stdDeviation="0.14552168" /></filter><linearGradient
       gradientUnits="userSpaceOnUse"
       gradientTransform="matrix(3.7796,0,0,3.7796,111.78704,0.53107)"
       y2="1.17"
       y1="15.576"
       x2="15.65"
       x1="1.3315"
       id="linearGradient1024-6"><stop
         id="stop13-7"
         offset="0"
         stop-color="#00dc96" /><stop
         id="stop15-5"
         offset="1"
         stop-color="#14d29b" /></linearGradient><linearGradient
       gradientUnits="userSpaceOnUse"
       gradientTransform="matrix(0.27476,0,0,0.27476,-24.952118,-0.32515)"
       y2="12.461"
       y1="57.955"
       x2="45.628"
       x1="45.628"
       id="b"><stop
         id="stop2-3"
         offset="0" /><stop
         id="stop4-5"
         offset="1"
         stop-opacity="0" /></linearGradient><style
       type="text/css"
       id="style872-0" /><style
       type="text/css"
       id="style874" /><style
       type="text/css"
       id="style876" /><filter
       id="filter2761-3"
       x="-.024"
       y="-.024"
       width="1.048"
       height="1.048"
       color-interpolation-filters="sRGB"><feGaussianBlur
         stdDeviation="0.14552168"
         id="feGaussianBlur878" /></filter><linearGradient
       id="linearGradient1024-6-6"
       x1="1.3315"
       x2="15.65"
       y1="15.576"
       y2="1.17"
       gradientTransform="matrix(3.7796,0,0,3.7796,-0.0020773,0.53047)"
       gradientUnits="userSpaceOnUse"><stop
         stop-color="#00dc96"
         offset="0"
         id="stop881" /><stop
         stop-color="#14d29b"
         offset="1"
         id="stop883" /></linearGradient><linearGradient
       id="c"
       gradientUnits="userSpaceOnUse"
       x1="7.3955584"
       x2="120.60351"
       y1="82.867371"
       y2="82.867371"
       gradientTransform="matrix(0.32706499,0,0,0.34576755,11.170273,8.8277654)"><stop
         offset="0"
         stop-color="#5e5c64"
         id="stop4-3"
         style="stop-color:#645f6e;stop-opacity:1;" /><stop
         offset="0.95417458"
         stop-color="#77767b"
         id="stop8"
         style="stop-color:#515151;stop-opacity:1;" /></linearGradient><linearGradient
       id="d"
       gradientTransform="matrix(2.571428,0,0,2.454545,22.856596,-230.59482)"
       x1="16"
       x2="16"
       xlink:href="#a"
       y1="121.58251"
       y2="127.08251" /><linearGradient
       id="a"
       gradientUnits="userSpaceOnUse"><stop
         offset="0"
         stop-color="#9a9996"
         id="stop1" /><stop
         offset="0.5"
         stop-color="#c0bfbc"
         id="stop2-5" /><stop
         offset="1"
         stop-color="#deddda"
         id="stop3" /></linearGradient><linearGradient
       id="e"
       gradientTransform="matrix(2.571428,0,0,2.454545,22.856596,-269.46138)"
       x1="16"
       x2="16"
       xlink:href="#a"
       y1="121.58251"
       y2="127.08251" /><linearGradient
       id="f"
       gradientTransform="matrix(2.571428,0,0,2.454545,57.82412,-269.46138)"
       x1="16"
       x2="16"
       xlink:href="#a"
       y1="121.58251"
       y2="127.08251" /><linearGradient
       id="g"
       gradientTransform="matrix(2.571428,0,0,2.454545,57.82412,-230.59482)"
       x1="16"
       x2="16"
       xlink:href="#a"
       y1="121.58251"
       y2="127.08251" /><linearGradient
       id="h"
       gradientTransform="matrix(2.358499,0,0,2.251294,-9.9347964,-220.55106)"
       gradientUnits="userSpaceOnUse"
       x1="12.5"
       x2="19.5"
       y1="113.83251"
       y2="113.83251"><stop
         offset="0"
         stop-color="#c0bfbc"
         id="stop19-9" /><stop
         offset="0.5"
         stop-color="#9a9996"
         id="stop20" /><stop
         offset="1"
         stop-color="#c0bfbc"
         id="stop21" /></linearGradient><linearGradient
       id="i"
       gradientTransform="matrix(2.571428,0,0,2.454545,-13.342147,-230.59482)"
       x1="16"
       x2="16"
       xlink:href="#a"
       y1="121.58251"
       y2="127.08251" /><linearGradient
       inkscape:collect="always"
       xlink:href="#linearGradient1"
       id="linearGradient6"
       x1="49.385071"
       y1="18.352705"
       x2="16.163229"
       y2="40.181213"
       gradientUnits="userSpaceOnUse" /><linearGradient
       inkscape:collect="always"
       xlink:href="#linearGradient7"
       id="linearGradient12"
       x1="1.5154241"
       y1="14.008099"
       x2="21.808067"
       y2="14.008099"
       gradientUnits="userSpaceOnUse" /><clipPath
       clipPathUnits="userSpaceOnUse"
       id="clipPath14"><rect
         style="fill:#ffffff;fill-opacity:1;stroke-width:1.8092"
         id="rect14"
         width="59.810944"
         height="45.108784"
         x="1.9041473"
         y="-61.006256"
         ry="0"
         transform="scale(1,-1)" /></clipPath><linearGradient
       inkscape:collect="always"
       xlink:href="#linearGradient7"
       id="linearGradient15"
       gradientUnits="userSpaceOnUse"
       x1="2.4319279"
       y1="10.925945"
       x2="19.94857"
       y2="14.703899" /></defs><circle
     id="circle16"
     fill="#5e4aa6"
     r="0"
     cy="-1279.3"
     cx="-1124.8" /><g
     id="g26"
     stroke-width="0.26458"
     fill="#5e4aa6"
     transform="matrix(3.7796,0,0,3.7796,123.83,-38.184)"
     style="display:inline"><circle
       id="circle18"
       r="0"
       cy="-338.76999"
       cx="-299.01999" /><circle
       id="circle20"
       fill-rule="evenodd"
       r="0"
       cy="-3.9487"
       cx="-8.1062002" /><circle
       id="circle22"
       r="0"
       cy="-357.69"
       cx="-278.25" /><circle
       id="circle24"
       fill-rule="evenodd"
       r="0"
       cy="-22.858999"
       cx="12.663" /></g><rect
     ry="15"
     y="4.4999995"
     x="4.4999995"
     height="55"
     width="55"
     id="rect1055"
     style="display:inline;opacity:0.3;fill:#141414;fill-opacity:1;stroke-width:2.74436;stroke-linecap:round;filter:url(#filter1057)" /><path
     d="m 6.715963,8.173992 c -3.0983965,2.137689 -3.8428626,4.601361 -3.6285433,6.772933 0.4159653,4.214735 4.0215788,6.644464 4.0215788,6.644464"
     fill="none"
     stroke="#1a5fb4"
     stroke-width="3.08553"
     id="path38"
     style="display:inline;fill:none;fill-opacity:1;stroke:url(#linearGradient12)"
     inkscape:label="wire bottom"
     sodipodi:nodetypes="csc" /><rect
     style="display:inline;fill:url(#linearGradient1053);fill-opacity:1;stroke-width:2.74436;stroke-linecap:round"
     id="rect1045"
     width="54.999996"
     height="54.999996"
     x="4.5000019"
     y="4.5000019"
     ry="14.999999" /><path
     d="m 50.614821,37.48055 v 6.523663 c 0,1.807175 -1.375972,3.261829 -3.085397,3.261829 H 16.674163 c -1.709425,0 -3.085398,-1.454654 -3.085398,-3.261829 V 37.48055 Z m 0,0"
     fill="url(#c)"
     fill-rule="evenodd"
     id="path13"
     style="display:inline;fill:url(#c);stroke-width:0.336286" /><path
     d="m 16.674163,17.423703 c -1.709425,0 -3.085398,1.759439 -3.085398,3.945257 v 15.781029 c 0,2.185818 1.375973,3.945256 3.085398,3.945256 h 30.855261 c 1.709425,0 3.086676,-1.759438 3.086676,-3.945256 V 21.36896 c 0,-2.185818 -1.377251,-3.945257 -3.086676,-3.945257 H 22.460403 17.059998 Z"
     fill="#77767b"
     fill-rule="evenodd"
     id="path14"
     style="display:inline;stroke-width:0.369842;fill:url(#linearGradient6)"
     sodipodi:nodetypes="ssssssssccs" /><g
     fill-rule="evenodd"
     id="g25"
     style="display:inline"
     inkscape:label="ports"
     transform="matrix(0.32706499,0,0,0.32706499,11.170273,10.906889)"><path
       d="M 98.965931,40.610675 V 69.244994"
       fill="none"
       stroke="#999999"
       stroke-width="2.46382"
       id="path26"
       style="stroke:#b3aec7;stroke-opacity:1" /><path
       d="M 64,40.610675 V 69.244994"
       fill="none"
       stroke="#999999"
       stroke-width="2.46382"
       id="path16"
       style="display:inline;stroke:#b3aec7;stroke-opacity:1" /><path
       d="M 27.799425,69.339844 V 40.610675"
       fill="none"
       stroke="#999999"
       stroke-width="2.46382"
       id="path30"
       style="display:inline;stroke:#b3aec7;stroke-opacity:1" /><path
       d="m 75,74.58605 c 0,4.554688 -4.925781,8.25 -11,8.25 -6.074219,0 -11,-3.695312 -11,-8.25 0,-4.558593 4.925781,-8.25 11,-8.25 6.074219,0 11,3.691407 11,8.25 z m 0,0"
       fill="#e01b24"
       id="path17" /><path
       d="m 73,74.58605 c 0,3.726563 -4.03125,6.75 -9,6.75 -4.972656,0 -9,-3.023437 -9,-6.75 0,-3.730468 4.027344,-6.75 9,-6.75 4.96875,0 9,3.019532 9,6.75 z m 0,0"
       fill="url(#d)"
       id="path18"
       style="fill:url(#d)" /><path
       d="m 71,74.58605 c 0,2.898438 -3.132812,5.25 -7,5.25 -3.867188,0 -7,-2.351562 -7,-5.25 0,-2.902343 3.132812,-5.25 7,-5.25 3.867188,0 7,2.347657 7,5.25 z m 0,0"
       fill="#3d3846"
       id="path19" /><path
       d="m 109.96593,74.58605 c 0,4.554688 -4.92188,8.25 -10.999999,8.25 -6.074224,0 -11.000005,-3.695312 -11.000005,-8.25 0,-4.558593 4.925781,-8.25 11.000005,-8.25 6.078119,0 10.999999,3.691407 10.999999,8.25 z m 0,0"
       fill="#e01b24"
       fill-rule="evenodd"
       id="path27"
       style="display:inline" /><path
       d="m 107.96593,74.58605 c 0,3.726563 -4.02735,6.75 -8.999999,6.75 -4.968755,0 -9.000005,-3.023437 -9.000005,-6.75 0,-3.730468 4.03125,-6.75 9.000005,-6.75 4.972649,0 8.999999,3.019532 8.999999,6.75 z m 0,0"
       fill="url(#g)"
       fill-rule="evenodd"
       id="path28"
       style="display:inline;fill:url(#g)"
       inkscape:label="path28" /><path
       d="m 105.96593,74.58605 c 0,2.898438 -3.13282,5.25 -6.999999,5.25 -3.863286,0 -7.000005,-2.351562 -7.000005,-5.25 0,-2.902343 3.136719,-5.25 7.000005,-5.25 3.867179,0 6.999999,2.347657 6.999999,5.25 z m 0,0"
       fill="#3d3846"
       fill-rule="evenodd"
       id="path29"
       style="display:inline" /><path
       d="m 38.799425,74.58605 c 0,4.554688 -4.921875,8.25 -11,8.25 -6.074219,0 -11,-3.695312 -11,-8.25 0,-4.558593 4.925781,-8.25 11,-8.25 6.078125,0 11,3.691407 11,8.25 z m 0,0"
       fill="#e01b24"
       fill-rule="evenodd"
       id="path33"
       style="display:inline" /><path
       d="m 36.799425,74.58605 c 0,3.726563 -4.027344,6.75 -9,6.75 -4.96875,0 -9,-3.023437 -9,-6.75 0,-3.730468 4.03125,-6.75 9,-6.75 4.972656,0 9,3.019532 9,6.75 z m 0,0"
       fill="url(#i)"
       fill-rule="evenodd"
       id="path34"
       style="display:inline;fill:url(#i)" /><path
       d="m 34.799425,74.58605 c 0,2.898438 -3.132813,5.25 -7,5.25 -3.863281,0 -7,-2.351562 -7,-5.25 0,-2.902343 3.136719,-5.25 7,-5.25 3.867187,0 7,2.347657 7,5.25 z m 0,0"
       fill="#3d3846"
       fill-rule="evenodd"
       id="path35"
       style="display:inline" /><path
       d="m 38.799425,36.617499 c 0,4.238281 -4.921875,7.671875 -11,7.671875 -6.074219,0 -11,-3.433594 -11,-7.671875 0,-4.234375 4.925781,-7.671875 11,-7.671875 6.078125,0 11,3.4375 11,7.671875 z m 0,0"
       fill="#1c71d8"
       fill-rule="evenodd"
       id="path31"
       style="display:inline" /><path
       d="m 19.545518,15.082343 v 20.636719 c 0.0039,3.417968 3.699219,6.191406 8.253907,6.191406 4.554687,0 8.25,-2.765625 8.253906,-6.183594 0,0 0,-0.0039 0,-0.0078 V 15.082343 c -1.308594,2.597656 -4.589844,6.132812 -8.253906,6.132812 -3.660157,0 -6.941407,-3.535156 -8.253907,-6.132812 z m 0,0"
       fill="url(#h)"
       fill-rule="evenodd"
       id="path32"
       style="display:inline;fill:url(#h)" /><path
       d="m 36.057237,15.082343 c 0,3.386719 -3.695312,6.132812 -8.257812,6.132812 -4.558594,0 -8.253907,-2.746093 -8.253907,-6.132812 0,-3.386719 3.695313,-6.1328133 8.253907,-6.1328133 4.5625,0 8.257812,2.7460943 8.257812,6.1328133 z m 0,0"
       fill="#c0bfbc"
       fill-rule="evenodd"
       id="path36"
       style="display:inline" /><path
       d="m 32.518175,15.082343 c 0,1.953125 -2.113281,3.539062 -4.71875,3.539062 -2.601563,0 -4.714844,-1.585937 -4.714844,-3.539062 0,-1.953125 2.113281,-3.539063 4.714844,-3.539063 2.605469,0 4.71875,1.585938 4.71875,3.539063 z m 0,0"
       fill="#1a5fb4"
       fill-rule="evenodd"
       id="path37"
       style="display:inline" /><path
       d="m 75,35.719062 c 0,4.554687 -4.925781,8.25 -11,8.25 -6.074219,0 -11,-3.695313 -11,-8.25 0,-4.558594 4.925781,-8.25 11,-8.25 6.074219,0 11,3.691406 11,8.25 z m 0,0"
       fill="#1c71d8"
       id="path20"
       style="display:inline" /><path
       d="m 73,35.719062 c 0,3.726562 -4.03125,6.75 -9,6.75 -4.972656,0 -9,-3.023438 -9,-6.75 0,-3.730469 4.027344,-6.75 9,-6.75 4.96875,0 9,3.019531 9,6.75 z m 0,0"
       fill="url(#e)"
       id="path21"
       style="display:inline;fill:url(#e)" /><path
       d="m 71,35.719062 c 0,2.898437 -3.132812,5.25 -7,5.25 -3.867188,0 -7,-2.351563 -7,-5.25 0,-2.898438 3.132812,-5.25 7,-5.25 3.867188,0 7,2.351562 7,5.25 z m 0,0"
       fill="#3d3846"
       id="path22"
       style="display:inline" /><path
       d="m 109.96593,35.719062 c 0,4.554687 -4.92188,8.25 -10.999999,8.25 -6.074224,0 -11.000005,-3.695313 -11.000005,-8.25 0,-4.558594 4.925781,-8.25 11.000005,-8.25 6.078119,0 10.999999,3.691406 10.999999,8.25 z m 0,0"
       fill="#1c71d8"
       id="path23"
       style="display:inline" /><path
       d="m 107.96593,35.719062 c 0,3.726562 -4.02735,6.75 -8.999999,6.75 -4.968755,0 -9.000005,-3.023438 -9.000005,-6.75 0,-3.730469 4.03125,-6.75 9.000005,-6.75 4.972649,0 8.999999,3.019531 8.999999,6.75 z m 0,0"
       fill="url(#f)"
       id="path24"
       style="display:inline;fill:url(#f)" /><path
       d="m 105.96593,35.719062 c 0,2.898437 -3.13282,5.25 -6.999999,5.25 -3.863286,0 -7.000005,-2.351563 -7.000005,-5.25 0,-2.898438 3.136719,-5.25 7.000005,-5.25 3.867179,0 6.999999,2.351562 6.999999,5.25 z m 0,0"
       fill="#3d3846"
       id="path25"
       style="display:inline" /></g><path
     d="m 20.263968,15.896415 c 0,-2.313729 0.105656,-6.0067011 -3.364347,-7.9280648 C 14.174915,6.5341345 9.8540995,6.0088845 6.715963,8.173992 3.6175665,10.311681 2.8731004,12.775353 3.0874197,14.946925"
     fill="none"
     stroke="#1a5fb4"
     stroke-width="3.08553"
     id="path15"
     style="display:inline;fill:none;fill-opacity:1;stroke:url(#linearGradient15)"
     inkscape:label="wire top"
     sodipodi:nodetypes="ccsc" /></svg>
