<?xml version="1.0" encoding="UTF-8" standalone="no"?>
<svg
   inkscape:version="1.3.2 (091e20ef0f, 2023-11-25)"
   sodipodi:docname="Vesktop.svg"
   id="svg42"
   version="1.1"
   height="64"
   width="64"
   xml:space="preserve"
   xmlns:inkscape="http://www.inkscape.org/namespaces/inkscape"
   xmlns:sodipodi="http://sodipodi.sourceforge.net/DTD/sodipodi-0.dtd"
   xmlns:xlink="http://www.w3.org/1999/xlink"
   xmlns="http://www.w3.org/2000/svg"
   xmlns:svg="http://www.w3.org/2000/svg"
   xmlns:rdf="http://www.w3.org/1999/02/22-rdf-syntax-ns#"
   xmlns:cc="http://creativecommons.org/ns#"
   xmlns:dc="http://purl.org/dc/elements/1.1/"><sodipodi:namedview
     inkscape:current-layer="svg42"
     inkscape:window-maximized="0"
     inkscape:window-y="23"
     inkscape:window-x="26"
     inkscape:cy="4.7499998"
     inkscape:cx="22.249999"
     inkscape:zoom="4.0000002"
     showgrid="false"
     id="namedview44"
     inkscape:window-height="1218"
     inkscape:window-width="1659"
     inkscape:pageshadow="2"
     inkscape:pageopacity="0"
     guidetolerance="10"
     gridtolerance="10"
     objecttolerance="10"
     borderopacity="1"
     bordercolor="#666666"
     pagecolor="#ffffff"
     inkscape:showpageshadow="0"
     inkscape:pagecheckerboard="1"
     inkscape:deskcolor="#505050" /><metadata
     id="metadata2"><rdf:RDF><cc:Work
         rdf:about=""><dc:format>image/svg+xml</dc:format><dc:type
           rdf:resource="http://purl.org/dc/dcmitype/StillImage" /></cc:Work></rdf:RDF></metadata><defs
     id="defs14"><style
       id="style4"
       type="text/css" /><filter
       color-interpolation-filters="sRGB"
       height="1.048"
       width="1.048"
       y="-.024"
       x="-.024"
       id="filter2761"><feGaussianBlur
         id="feGaussianBlur6"
         stdDeviation="0.14552168" /></filter><linearGradient
       gradientUnits="userSpaceOnUse"
       gradientTransform="matrix(3.7796,0,0,3.7796,110.07575,0.53066)"
       y2="1.1082"
       y1="15.429"
       x2="15.644"
       x1="1.2573"
       id="linearGradient4673"><stop
         id="stop9"
         offset="0"
         stop-color="#32dcff" /><stop
         id="stop11"
         offset="1"
         stop-color="#3296ff" /></linearGradient><linearGradient
       gradientUnits="userSpaceOnUse"
       gradientTransform="matrix(1.0000066,0,0,1.0000066,19.187825,0)"
       y2="1.0583"
       y1="6.879"
       x2="7.9373"
       x1="7.9373"
       id="linearGradient865"><stop
         id="stop2"
         offset="0"
         stop-color="#fff" /><stop
         id="stop4"
         offset="1"
         stop-color="#fcc" /></linearGradient><linearGradient
       gradientTransform="translate(19.187825)"
       gradientUnits="userSpaceOnUse"
       y2="3.9327"
       y1="14.579"
       x2="12.314"
       x1="2.6278"
       id="linearGradient855"><stop
         id="stop7"
         offset="0"
         stop-color="#d462aa" /><stop
         id="stop9-3"
         offset=".15178"
         stop-color="#56c7d9" /><stop
         id="stop11-6"
         offset=".33294"
         stop-color="#2da8b8" /><stop
         id="stop13"
         offset=".53353"
         stop-color="#72cb6b" /><stop
         id="stop15"
         offset=".71019"
         stop-color="#c4dc2b" /><stop
         id="stop17"
         offset=".8623"
         stop-color="#f9da3e" /><stop
         id="stop19"
         offset="1"
         stop-color="#f69429" /></linearGradient><linearGradient
       gradientUnits="userSpaceOnUse"
       gradientTransform="matrix(0.26458,0,0,0.26458,19.187825,0)"
       y2="6.9915"
       y1="19"
       x2="57.008"
       x1="45"
       id="linearGradient910"><stop
         id="stop22"
         offset="0"
         stop-color="#fff" /><stop
         id="stop24"
         offset="1"
         stop-color="#ffe3cc" /></linearGradient><filter
       inkscape:collect="always"
       style="color-interpolation-filters:sRGB"
       id="filter1057"
       x="-0.026999999"
       width="1.054"
       y="-0.026999999"
       height="1.054"><feGaussianBlur
         inkscape:collect="always"
         stdDeviation="0.61875"
         id="feGaussianBlur1059" /></filter><linearGradient
       inkscape:collect="always"
       xlink:href="#linearGradient1051"
       id="linearGradient1053"
       x1="-99.720467"
       y1="68.684151"
       x2="-99.237091"
       y2="4.9627109"
       gradientUnits="userSpaceOnUse"
       gradientTransform="translate(131.5,-0.5099984)" /><linearGradient
       inkscape:collect="always"
       id="linearGradient1051"><stop
         style="stop-color:#c79924;stop-opacity:1;"
         offset="0"
         id="stop1047" /><stop
         style="stop-color:#bd5dbd;stop-opacity:1;"
         offset="1"
         id="stop1049" /></linearGradient><style
       type="text/css"
       id="style872" /><filter
       id="filter2761-7"
       x="-.024"
       y="-.024"
       width="1.048"
       height="1.048"
       color-interpolation-filters="sRGB"><feGaussianBlur
         stdDeviation="0.14552168"
         id="feGaussianBlur874" /></filter><style
       id="style4-5"
       type="text/css" /><style
       id="style6"
       type="text/css" /><style
       id="style8"
       type="text/css" /><filter
       color-interpolation-filters="sRGB"
       height="1.048"
       width="1.048"
       y="-.024"
       x="-.024"
       id="filter2761-36"><feGaussianBlur
         id="feGaussianBlur10"
         stdDeviation="0.14552168" /></filter><linearGradient
       gradientUnits="userSpaceOnUse"
       gradientTransform="matrix(3.7796,0,0,3.7796,111.78704,0.53107)"
       y2="1.17"
       y1="15.576"
       x2="15.65"
       x1="1.3315"
       id="linearGradient1024-6"><stop
         id="stop13-7"
         offset="0"
         stop-color="#00dc96" /><stop
         id="stop15-5"
         offset="1"
         stop-color="#14d29b" /></linearGradient><linearGradient
       gradientUnits="userSpaceOnUse"
       gradientTransform="matrix(0.27476,0,0,0.27476,-24.952118,-0.32515)"
       y2="12.461"
       y1="57.955"
       x2="45.628"
       x1="45.628"
       id="b"><stop
         id="stop2-3"
         offset="0" /><stop
         id="stop4-5"
         offset="1"
         stop-opacity="0" /></linearGradient><style
       type="text/css"
       id="style872-0" /><style
       type="text/css"
       id="style874" /><style
       type="text/css"
       id="style876" /><filter
       id="filter2761-3"
       x="-.024"
       y="-.024"
       width="1.048"
       height="1.048"
       color-interpolation-filters="sRGB"><feGaussianBlur
         stdDeviation="0.14552168"
         id="feGaussianBlur878" /></filter><linearGradient
       id="linearGradient1024-6-6"
       x1="1.3315"
       x2="15.65"
       y1="15.576"
       y2="1.17"
       gradientTransform="matrix(3.7796,0,0,3.7796,-0.0020773,0.53047)"
       gradientUnits="userSpaceOnUse"><stop
         stop-color="#00dc96"
         offset="0"
         id="stop881" /><stop
         stop-color="#14d29b"
         offset="1"
         id="stop883" /></linearGradient><linearGradient
       inkscape:collect="always"
       xlink:href="#linearGradient4524"
       id="linearGradient692"
       gradientUnits="userSpaceOnUse"
       gradientTransform="matrix(3.779602,0,0,3.779602,-0.01665114,6.6701822e-4)"
       x1="18.086309"
       y1="-1.0306368"
       x2="4.0384512"
       y2="11.77914" /><linearGradient
       id="linearGradient4524"
       x1="3.1161001"
       x2="13.676"
       y1="4.5948"
       y2="12.128"
       gradientTransform="translate(21.86302,2.9967e-4)"
       gradientUnits="userSpaceOnUse"><stop
         stop-color="#fff"
         offset="0"
         id="stop4520" /><stop
         stop-color="#c6efff"
         offset="1"
         id="stop4522"
         style="stop-color:#d4c3ff;stop-opacity:1;" /></linearGradient></defs><circle
     id="circle16"
     fill="#5e4aa6"
     r="0"
     cy="-1279.3"
     cx="-1124.8" /><g
     id="g26"
     stroke-width="0.26458"
     fill="#5e4aa6"
     transform="matrix(3.7796,0,0,3.7796,123.83,-38.184)"
     style="display:inline"><circle
       id="circle18"
       r="0"
       cy="-338.76999"
       cx="-299.01999" /><circle
       id="circle20"
       fill-rule="evenodd"
       r="0"
       cy="-3.9487"
       cx="-8.1062002" /><circle
       id="circle22"
       r="0"
       cy="-357.69"
       cx="-278.25" /><circle
       id="circle24"
       fill-rule="evenodd"
       r="0"
       cy="-22.858999"
       cx="12.663" /></g><rect
     ry="15"
     y="4.4999995"
     x="4.4999995"
     height="55"
     width="55"
     id="rect1055"
     style="display:inline;opacity:0.3;fill:#141414;fill-opacity:1;stroke-width:2.74436;stroke-linecap:round;filter:url(#filter1057)" /><rect
     style="display:inline;fill:url(#linearGradient1053);fill-opacity:1;stroke-width:2.74436;stroke-linecap:round"
     id="rect1045"
     width="54.999996"
     height="54.999996"
     x="4.5000019"
     y="4.5000019"
     ry="14.999999" /><path
     d="m 39.100106,42.784629 c 2.362667,-0.741709 4.401346,-1.891956 5.985755,-3.940235 -8.672297,5.011752 -17.251616,4.8583 -25.90766,0.03477 0.706256,1.00768 1.556704,1.773238 2.549341,2.347889 0.989689,0.572987 2.040154,1.041091 3.099425,1.573221 -0.456765,0.57038 -0.998835,1.166763 -1.44532,1.827551 -0.424978,0.629606 -0.906877,0.850146 -1.683623,0.759851 -2.926773,-0.340124 -5.557905,-1.314165 -7.739491,-3.351371 -0.06323,-0.05923 -0.122686,-0.122459 -0.186864,-0.180287 -0.8907,-0.802183 -1.262538,-1.697532 -1.185887,-2.992689 0.362388,-6.130514 1.89203,-11.931447 4.569916,-17.441351 0.131266,-0.270079 0.355472,-0.530051 0.600768,-0.704102 2.139254,-1.518455 4.485253,-2.56737 7.080706,-3.020771 0.495393,-0.0866 0.998004,-0.151445 1.499633,-0.173703 0.203909,-0.009 0.414169,0.12219 0.616982,0.268956 -3.083853,1.030887 -6.014481,2.272864 -8.591791,4.348054 8.856363,-4.218791 17.661324,-4.427426 26.490475,-0.106936 -2.360248,-1.907376 -5.088856,-3.089333 -7.943212,-4.023386 0.213094,-0.438434 0.510548,-0.522757 0.966407,-0.480312 3.089106,0.287053 5.847422,1.422529 8.365771,3.18885 0.236301,0.165739 0.456954,0.409331 0.584137,0.666533 1.953752,3.955353 3.270679,8.117073 4.017339,12.464749 0.346703,2.020538 0.525289,4.055135 0.560704,6.101412 0.0045,0.287665 -0.117281,0.630513 -0.294431,0.860351 -1.645223,2.134681 -3.838185,3.453157 -6.420788,4.112585 -0.997436,0.254669 -2.037659,0.345342 -3.061855,0.486208 -0.15863,0.02192 -0.398673,-0.03477 -0.493767,-0.146611 -0.682143,-0.799499 -1.336316,-1.62247 -2.032784,-2.479041 z M 25.420591,37.317812 c 1.132142,-0.0028 1.803362,-0.242537 2.392489,-0.73192 0.962929,-0.800444 1.32218,-1.854953 1.396336,-3.079128 0.08277,-1.368972 -0.448715,-2.387159 -1.586072,-3.08185 -1.173416,-0.716574 -2.399519,-0.775801 -3.587183,-0.03061 -1.90628,1.196244 -2.264322,4.041906 -0.74753,5.756711 0.663698,0.750251 1.488143,1.158789 2.131998,1.166764 z m 12.495743,0.05284 c 0.389186,-0.08927 0.796589,-0.131719 1.164609,-0.275533 2.271314,-0.886165 2.994541,-3.936077 1.424041,-5.94607 -1.223835,-1.566267 -3.504146,-1.707397 -4.898365,-0.288799 -0.922299,0.938248 -1.210002,2.086076 -1.052808,3.370649 0.208256,1.702484 1.698439,3.079468 3.362712,3.139753 z"
     fill="url(#linearGradient845)"
     stroke-width="0.17283"
     id="path690"
     style="fill:url(#linearGradient692)" /></svg>
