<?xml version="1.0" encoding="UTF-8" standalone="no"?>
<svg
   inkscape:version="1.3.2 (091e20ef0f, 2023-11-25)"
   sodipodi:docname="Exhibit.svg"
   id="svg42"
   version="1.1"
   height="64"
   width="64"
   xml:space="preserve"
   xmlns:inkscape="http://www.inkscape.org/namespaces/inkscape"
   xmlns:sodipodi="http://sodipodi.sourceforge.net/DTD/sodipodi-0.dtd"
   xmlns:xlink="http://www.w3.org/1999/xlink"
   xmlns="http://www.w3.org/2000/svg"
   xmlns:svg="http://www.w3.org/2000/svg"
   xmlns:rdf="http://www.w3.org/1999/02/22-rdf-syntax-ns#"
   xmlns:cc="http://creativecommons.org/ns#"
   xmlns:dc="http://purl.org/dc/elements/1.1/"><sodipodi:namedview
     inkscape:current-layer="svg42"
     inkscape:window-maximized="0"
     inkscape:window-y="23"
     inkscape:window-x="26"
     inkscape:cy="-6.6249997"
     inkscape:cx="47.624998"
     inkscape:zoom="4.0000002"
     showgrid="false"
     id="namedview44"
     inkscape:window-height="1155"
     inkscape:window-width="1710"
     inkscape:pageshadow="2"
     inkscape:pageopacity="0"
     guidetolerance="10"
     gridtolerance="10"
     objecttolerance="10"
     borderopacity="1"
     bordercolor="#666666"
     pagecolor="#ffffff"
     inkscape:showpageshadow="0"
     inkscape:pagecheckerboard="1"
     inkscape:deskcolor="#505050" /><metadata
     id="metadata2"><rdf:RDF><cc:Work
         rdf:about=""><dc:format>image/svg+xml</dc:format><dc:type
           rdf:resource="http://purl.org/dc/dcmitype/StillImage" /></cc:Work></rdf:RDF></metadata><defs
     id="defs14"><linearGradient
       id="linearGradient1"
       inkscape:collect="always"><stop
         style="stop-color:#62a4ea;stop-opacity:1;"
         offset="0"
         id="stop1" /><stop
         style="stop-color:#f67468;stop-opacity:1;"
         offset="0.46465048"
         id="stop5" /><stop
         style="stop-color:#ffa553;stop-opacity:1;"
         offset="0.82571459"
         id="stop6" /><stop
         style="stop-color:#f6d32d;stop-opacity:1;"
         offset="1"
         id="stop3" /></linearGradient><style
       id="style4"
       type="text/css" /><filter
       color-interpolation-filters="sRGB"
       height="1.048"
       width="1.048"
       y="-.024"
       x="-.024"
       id="filter2761"><feGaussianBlur
         id="feGaussianBlur6"
         stdDeviation="0.14552168" /></filter><linearGradient
       gradientUnits="userSpaceOnUse"
       gradientTransform="matrix(3.7796,0,0,3.7796,110.07575,0.53066)"
       y2="1.1082"
       y1="15.429"
       x2="15.644"
       x1="1.2573"
       id="linearGradient4673"><stop
         id="stop9"
         offset="0"
         stop-color="#32dcff" /><stop
         id="stop11"
         offset="1"
         stop-color="#3296ff" /></linearGradient><linearGradient
       gradientUnits="userSpaceOnUse"
       gradientTransform="matrix(1.0000066,0,0,1.0000066,19.187825,0)"
       y2="1.0583"
       y1="6.879"
       x2="7.9373"
       x1="7.9373"
       id="linearGradient865"><stop
         id="stop2"
         offset="0"
         stop-color="#fff" /><stop
         id="stop4"
         offset="1"
         stop-color="#fcc" /></linearGradient><linearGradient
       gradientTransform="translate(19.187825)"
       gradientUnits="userSpaceOnUse"
       y2="3.9327"
       y1="14.579"
       x2="12.314"
       x1="2.6278"
       id="linearGradient855"><stop
         id="stop7"
         offset="0"
         stop-color="#d462aa" /><stop
         id="stop9-3"
         offset=".15178"
         stop-color="#56c7d9" /><stop
         id="stop11-6"
         offset=".33294"
         stop-color="#2da8b8" /><stop
         id="stop13"
         offset=".53353"
         stop-color="#72cb6b" /><stop
         id="stop15"
         offset=".71019"
         stop-color="#c4dc2b" /><stop
         id="stop17"
         offset=".8623"
         stop-color="#f9da3e" /><stop
         id="stop19"
         offset="1"
         stop-color="#f69429" /></linearGradient><linearGradient
       gradientUnits="userSpaceOnUse"
       gradientTransform="matrix(0.26458,0,0,0.26458,19.187825,0)"
       y2="6.9915"
       y1="19"
       x2="57.008"
       x1="45"
       id="linearGradient910"><stop
         id="stop22"
         offset="0"
         stop-color="#fff" /><stop
         id="stop24"
         offset="1"
         stop-color="#ffe3cc" /></linearGradient><filter
       inkscape:collect="always"
       style="color-interpolation-filters:sRGB"
       id="filter1057"
       x="-0.026999999"
       width="1.054"
       y="-0.026999999"
       height="1.054"><feGaussianBlur
         inkscape:collect="always"
         stdDeviation="0.61875"
         id="feGaussianBlur1059" /></filter><style
       type="text/css"
       id="style872" /><filter
       id="filter2761-7"
       x="-.024"
       y="-.024"
       width="1.048"
       height="1.048"
       color-interpolation-filters="sRGB"><feGaussianBlur
         stdDeviation="0.14552168"
         id="feGaussianBlur874" /></filter><style
       id="style4-5"
       type="text/css" /><style
       id="style6"
       type="text/css" /><style
       id="style8"
       type="text/css" /><filter
       color-interpolation-filters="sRGB"
       height="1.048"
       width="1.048"
       y="-.024"
       x="-.024"
       id="filter2761-36"><feGaussianBlur
         id="feGaussianBlur10"
         stdDeviation="0.14552168" /></filter><linearGradient
       gradientUnits="userSpaceOnUse"
       gradientTransform="matrix(3.7796,0,0,3.7796,111.78704,0.53107)"
       y2="1.17"
       y1="15.576"
       x2="15.65"
       x1="1.3315"
       id="linearGradient1024-6"><stop
         id="stop13-7"
         offset="0"
         stop-color="#00dc96" /><stop
         id="stop15-5"
         offset="1"
         stop-color="#14d29b" /></linearGradient><linearGradient
       gradientUnits="userSpaceOnUse"
       gradientTransform="matrix(0.27476,0,0,0.27476,-24.952118,-0.32515)"
       y2="12.461"
       y1="57.955"
       x2="45.628"
       x1="45.628"
       id="b"><stop
         id="stop2-3"
         offset="0" /><stop
         id="stop4-5"
         offset="1"
         stop-opacity="0" /></linearGradient><style
       type="text/css"
       id="style872-0" /><style
       type="text/css"
       id="style874" /><style
       type="text/css"
       id="style876" /><filter
       id="filter2761-3"
       x="-.024"
       y="-.024"
       width="1.048"
       height="1.048"
       color-interpolation-filters="sRGB"><feGaussianBlur
         stdDeviation="0.14552168"
         id="feGaussianBlur878" /></filter><linearGradient
       id="linearGradient1024-6-6"
       x1="1.3315"
       x2="15.65"
       y1="15.576"
       y2="1.17"
       gradientTransform="matrix(3.7796,0,0,3.7796,-0.0020773,0.53047)"
       gradientUnits="userSpaceOnUse"><stop
         stop-color="#00dc96"
         offset="0"
         id="stop881" /><stop
         stop-color="#14d29b"
         offset="1"
         id="stop883" /></linearGradient><linearGradient
       inkscape:collect="always"
       xlink:href="#linearGradient1"
       id="linearGradient3"
       x1="4.5766511"
       y1="44.652653"
       x2="59.940556"
       y2="17.777073"
       gradientUnits="userSpaceOnUse" /></defs><circle
     id="circle16"
     fill="#5e4aa6"
     r="0"
     cy="-1279.3"
     cx="-1124.8" /><g
     id="g26"
     stroke-width="0.26458"
     fill="#5e4aa6"
     transform="matrix(3.7796,0,0,3.7796,123.83,-38.184)"
     style="display:inline"><circle
       id="circle18"
       r="0"
       cy="-338.76999"
       cx="-299.01999" /><circle
       id="circle20"
       fill-rule="evenodd"
       r="0"
       cy="-3.9487"
       cx="-8.1062002" /><circle
       id="circle22"
       r="0"
       cy="-357.69"
       cx="-278.25" /><circle
       id="circle24"
       fill-rule="evenodd"
       r="0"
       cy="-22.858999"
       cx="12.663" /></g><rect
     ry="15"
     y="4.4999995"
     x="4.4999995"
     height="55"
     width="55"
     id="rect1055"
     style="display:inline;opacity:0.3;fill:#141414;fill-opacity:1;stroke-width:2.74436;stroke-linecap:round;filter:url(#filter1057)" /><rect
     style="display:inline;fill:url(#linearGradient3);fill-opacity:1;stroke-width:2.74436;stroke-linecap:round"
     id="rect1045"
     width="54.999996"
     height="54.999996"
     x="4.5000019"
     y="4.5000019"
     ry="14.999999" /><g
     id="g1"
     transform="matrix(0.36762329,0,0,0.36762329,14.261739,14.545296)"
     style="display:none"><g
       id="g71"
       style="display:inline;fill:#acb1b4;fill-opacity:0.616082"><path
         d="m 102,96 c 3.3125,0 6,2.6875 6,6 0,3.3125 -2.6875,6 -6,6 -3.3125,0 -6,-2.6875 -6,-6 0,-3.3125 2.6875,-6 6,-6 z m 0,0"
         fill="#3584e4"
         id="path60"
         style="display:inline;fill:#acb1b4;fill-opacity:0.616082" /><path
         d="m 102,12 c 3.3125,0 6,2.6875 6,6 0,3.3125 -2.6875,6 -6,6 -3.3125,0 -6,-2.6875 -6,-6 0,-3.3125 2.6875,-6 6,-6 z m 0,0"
         fill="#3584e4"
         id="path61"
         style="display:inline;fill:#acb1b4;fill-opacity:0.616082" /><path
         d="m 18,96 c 3.3125,0 6,2.6875 6,6 0,3.3125 -2.6875,6 -6,6 -3.3125,0 -6,-2.6875 -6,-6 0,-3.3125 2.6875,-6 6,-6 z m 0,0"
         fill="#3584e4"
         id="path62"
         style="display:inline;fill:#acb1b4;fill-opacity:0.616082" /><path
         d="m 18,12 c 3.3125,0 6,2.6875 6,6 0,3.3125 -2.6875,6 -6,6 -3.3125,0 -6,-2.6875 -6,-6 0,-3.3125 2.6875,-6 6,-6 z m 0,0"
         fill="#3584e4"
         id="path63"
         style="display:inline;fill:#acb1b4;fill-opacity:0.616082" /></g><g
       fill="#62a0ea"
       id="g59"
       style="display:inline;fill:#bbc2c9;fill-opacity:0.797778"><path
         d="m 38,102 c 0,1.10547 -0.894531,2 -2,2 -1.105469,0 -2,-0.89453 -2,-2 0,-1.10547 0.894531,-2 2,-2 1.105469,0 2,0.89453 2,2 z m 0,0"
         id="path20"
         style="fill:#bbc2c9;fill-opacity:0.797778" /><path
         d="m 30,102 c 0,1.10547 -0.894531,2 -2,2 -1.105469,0 -2,-0.89453 -2,-2 0,-1.10547 0.894531,-2 2,-2 1.105469,0 2,0.89453 2,2 z m 0,0"
         id="path21"
         style="fill:#bbc2c9;fill-opacity:0.797778" /><path
         d="m 54,102 c 0,1.10547 -0.894531,2 -2,2 -1.105469,0 -2,-0.89453 -2,-2 0,-1.10547 0.894531,-2 2,-2 1.105469,0 2,0.89453 2,2 z m 0,0"
         id="path22"
         style="fill:#bbc2c9;fill-opacity:0.797778" /><path
         d="m 46,102 c 0,1.10547 -0.894531,2 -2,2 -1.105469,0 -2,-0.89453 -2,-2 0,-1.10547 0.894531,-2 2,-2 1.105469,0 2,0.89453 2,2 z m 0,0"
         id="path23"
         style="fill:#bbc2c9;fill-opacity:0.797778" /><path
         d="m 70,102 c 0,1.10547 -0.894531,2 -2,2 -1.105469,0 -2,-0.89453 -2,-2 0,-1.10547 0.894531,-2 2,-2 1.105469,0 2,0.89453 2,2 z m 0,0"
         id="path24"
         style="fill:#bbc2c9;fill-opacity:0.797778" /><path
         d="m 62,102 c 0,1.10547 -0.894531,2 -2,2 -1.105469,0 -2,-0.89453 -2,-2 0,-1.10547 0.894531,-2 2,-2 1.105469,0 2,0.89453 2,2 z m 0,0"
         id="path25"
         style="fill:#bbc2c9;fill-opacity:0.797778" /><path
         d="m 86,102 c 0,1.10547 -0.894531,2 -2,2 -1.105469,0 -2,-0.89453 -2,-2 0,-1.10547 0.894531,-2 2,-2 1.105469,0 2,0.89453 2,2 z m 0,0"
         id="path26"
         style="fill:#bbc2c9;fill-opacity:0.797778" /><path
         d="m 78,102 c 0,1.10547 -0.894531,2 -2,2 -1.105469,0 -2,-0.89453 -2,-2 0,-1.10547 0.894531,-2 2,-2 1.105469,0 2,0.89453 2,2 z m 0,0"
         id="path27"
         style="fill:#bbc2c9;fill-opacity:0.797778" /><path
         d="m 94,102 c 0,1.10547 -0.894531,2 -2,2 -1.105469,0 -2,-0.89453 -2,-2 0,-1.10547 0.894531,-2 2,-2 1.105469,0 2,0.89453 2,2 z m 0,0"
         id="path29"
         style="fill:#bbc2c9;fill-opacity:0.797778" /><path
         d="m 18,38 c -1.105469,0 -2,-0.894531 -2,-2 0,-1.105469 0.894531,-2 2,-2 1.105469,0 2,0.894531 2,2 0,1.105469 -0.894531,2 -2,2 z m 0,0"
         id="path30"
         style="fill:#bbc2c9;fill-opacity:0.797778" /><path
         d="m 18,30 c -1.105469,0 -2,-0.894531 -2,-2 0,-1.105469 0.894531,-2 2,-2 1.105469,0 2,0.894531 2,2 0,1.105469 -0.894531,2 -2,2 z m 0,0"
         id="path31"
         style="fill:#bbc2c9;fill-opacity:0.797778" /><path
         d="m 18,54 c -1.105469,0 -2,-0.894531 -2,-2 0,-1.105469 0.894531,-2 2,-2 1.105469,0 2,0.894531 2,2 0,1.105469 -0.894531,2 -2,2 z m 0,0"
         id="path32"
         style="fill:#bbc2c9;fill-opacity:0.797778" /><path
         d="m 18,46 c -1.105469,0 -2,-0.894531 -2,-2 0,-1.105469 0.894531,-2 2,-2 1.105469,0 2,0.894531 2,2 0,1.105469 -0.894531,2 -2,2 z m 0,0"
         id="path33"
         style="fill:#bbc2c9;fill-opacity:0.797778" /><path
         d="m 18,70 c -1.105469,0 -2,-0.894531 -2,-2 0,-1.105469 0.894531,-2 2,-2 1.105469,0 2,0.894531 2,2 0,1.105469 -0.894531,2 -2,2 z m 0,0"
         id="path34"
         style="fill:#bbc2c9;fill-opacity:0.797778" /><path
         d="m 18,62 c -1.105469,0 -2,-0.894531 -2,-2 0,-1.105469 0.894531,-2 2,-2 1.105469,0 2,0.894531 2,2 0,1.105469 -0.894531,2 -2,2 z m 0,0"
         id="path35"
         style="fill:#bbc2c9;fill-opacity:0.797778" /><path
         d="m 18,86 c -1.105469,0 -2,-0.894531 -2,-2 0,-1.105469 0.894531,-2 2,-2 1.105469,0 2,0.894531 2,2 0,1.105469 -0.894531,2 -2,2 z m 0,0"
         id="path36"
         style="fill:#bbc2c9;fill-opacity:0.797778" /><path
         d="m 18,78 c -1.105469,0 -2,-0.894531 -2,-2 0,-1.105469 0.894531,-2 2,-2 1.105469,0 2,0.894531 2,2 0,1.105469 -0.894531,2 -2,2 z m 0,0"
         id="path37"
         style="fill:#bbc2c9;fill-opacity:0.797778" /><path
         d="m 18,94 c -1.105469,0 -2,-0.894531 -2,-2 0,-1.105469 0.894531,-2 2,-2 1.105469,0 2,0.894531 2,2 0,1.105469 -0.894531,2 -2,2 z m 0,0"
         id="path39"
         style="fill:#bbc2c9;fill-opacity:0.797778" /><path
         d="m 102,38 c -1.10547,0 -2,-0.894531 -2,-2 0,-1.105469 0.89453,-2 2,-2 1.10547,0 2,0.894531 2,2 0,1.105469 -0.89453,2 -2,2 z m 0,0"
         id="path40"
         style="fill:#bbc2c9;fill-opacity:0.797778" /><path
         d="m 102,30 c -1.10547,0 -2,-0.894531 -2,-2 0,-1.105469 0.89453,-2 2,-2 1.10547,0 2,0.894531 2,2 0,1.105469 -0.89453,2 -2,2 z m 0,0"
         id="path41"
         style="fill:#bbc2c9;fill-opacity:0.797778" /><path
         d="m 102,54 c -1.10547,0 -2,-0.894531 -2,-2 0,-1.105469 0.89453,-2 2,-2 1.10547,0 2,0.894531 2,2 0,1.105469 -0.89453,2 -2,2 z m 0,0"
         id="path42"
         style="fill:#bbc2c9;fill-opacity:0.797778" /><path
         d="m 102,46 c -1.10547,0 -2,-0.894531 -2,-2 0,-1.105469 0.89453,-2 2,-2 1.10547,0 2,0.894531 2,2 0,1.105469 -0.89453,2 -2,2 z m 0,0"
         id="path43"
         style="fill:#bbc2c9;fill-opacity:0.797778" /><path
         d="m 102,70 c -1.10547,0 -2,-0.894531 -2,-2 0,-1.105469 0.89453,-2 2,-2 1.10547,0 2,0.894531 2,2 0,1.105469 -0.89453,2 -2,2 z m 0,0"
         id="path44"
         style="fill:#bbc2c9;fill-opacity:0.797778" /><path
         d="m 102,62 c -1.10547,0 -2,-0.894531 -2,-2 0,-1.105469 0.89453,-2 2,-2 1.10547,0 2,0.894531 2,2 0,1.105469 -0.89453,2 -2,2 z m 0,0"
         id="path45"
         style="fill:#bbc2c9;fill-opacity:0.797778" /><path
         d="m 102,86 c -1.10547,0 -2,-0.894531 -2,-2 0,-1.105469 0.89453,-2 2,-2 1.10547,0 2,0.894531 2,2 0,1.105469 -0.89453,2 -2,2 z m 0,0"
         id="path46"
         style="fill:#bbc2c9;fill-opacity:0.797778" /><path
         d="m 102,78 c -1.10547,0 -2,-0.894531 -2,-2 0,-1.105469 0.89453,-2 2,-2 1.10547,0 2,0.894531 2,2 0,1.105469 -0.89453,2 -2,2 z m 0,0"
         id="path47"
         style="fill:#bbc2c9;fill-opacity:0.797778" /><path
         d="m 102,94 c -1.10547,0 -2,-0.894531 -2,-2 0,-1.105469 0.89453,-2 2,-2 1.10547,0 2,0.894531 2,2 0,1.105469 -0.89453,2 -2,2 z m 0,0"
         id="path49"
         style="fill:#bbc2c9;fill-opacity:0.797778" /><path
         d="m 38,18 c 0,1.105469 -0.894531,2 -2,2 -1.105469,0 -2,-0.894531 -2,-2 0,-1.105469 0.894531,-2 2,-2 1.105469,0 2,0.894531 2,2 z m 0,0"
         id="path50"
         style="fill:#bbc2c9;fill-opacity:0.797778" /><path
         d="m 30,18 c 0,1.105469 -0.894531,2 -2,2 -1.105469,0 -2,-0.894531 -2,-2 0,-1.105469 0.894531,-2 2,-2 1.105469,0 2,0.894531 2,2 z m 0,0"
         id="path51"
         style="fill:#bbc2c9;fill-opacity:0.797778" /><path
         d="m 54,18 c 0,1.105469 -0.894531,2 -2,2 -1.105469,0 -2,-0.894531 -2,-2 0,-1.105469 0.894531,-2 2,-2 1.105469,0 2,0.894531 2,2 z m 0,0"
         id="path52"
         style="fill:#bbc2c9;fill-opacity:0.797778" /><path
         d="m 46,18 c 0,1.105469 -0.894531,2 -2,2 -1.105469,0 -2,-0.894531 -2,-2 0,-1.105469 0.894531,-2 2,-2 1.105469,0 2,0.894531 2,2 z m 0,0"
         id="path53"
         style="fill:#bbc2c9;fill-opacity:0.797778" /><path
         d="m 70,18 c 0,1.105469 -0.894531,2 -2,2 -1.105469,0 -2,-0.894531 -2,-2 0,-1.105469 0.894531,-2 2,-2 1.105469,0 2,0.894531 2,2 z m 0,0"
         id="path54"
         style="fill:#bbc2c9;fill-opacity:0.797778" /><path
         d="m 62,18 c 0,1.105469 -0.894531,2 -2,2 -1.105469,0 -2,-0.894531 -2,-2 0,-1.105469 0.894531,-2 2,-2 1.105469,0 2,0.894531 2,2 z m 0,0"
         id="path55"
         style="fill:#bbc2c9;fill-opacity:0.797778" /><path
         d="m 86,18 c 0,1.105469 -0.894531,2 -2,2 -1.105469,0 -2,-0.894531 -2,-2 0,-1.105469 0.894531,-2 2,-2 1.105469,0 2,0.894531 2,2 z m 0,0"
         id="path56"
         style="fill:#bbc2c9;fill-opacity:0.797778" /><path
         d="m 78,18 c 0,1.105469 -0.894531,2 -2,2 -1.105469,0 -2,-0.894531 -2,-2 0,-1.105469 0.894531,-2 2,-2 1.105469,0 2,0.894531 2,2 z m 0,0"
         id="path57"
         style="fill:#bbc2c9;fill-opacity:0.797778" /><path
         d="m 94,18 c 0,1.105469 -0.894531,2 -2,2 -1.105469,0 -2,-0.894531 -2,-2 0,-1.105469 0.894531,-2 2,-2 1.105469,0 2,0.894531 2,2 z m 0,0"
         id="path59"
         style="fill:#bbc2c9;fill-opacity:0.797778" /></g><g
       id="g2"
       style="display:inline;fill:#bfc8d2;fill-opacity:1"><path
         d="m 18,15 c 1.65625,0 3,1.34375 3,3 0,1.65625 -1.34375,3 -3,3 -1.65625,0 -3,-1.34375 -3,-3 0,-1.65625 1.34375,-3 3,-3 z m 0,0"
         fill="#99c1f1"
         id="path64"
         style="display:inline;fill:#bfc8d2;fill-opacity:1" /><path
         d="m 102,15 c 1.65625,0 3,1.34375 3,3 0,1.65625 -1.34375,3 -3,3 -1.65625,0 -3,-1.34375 -3,-3 0,-1.65625 1.34375,-3 3,-3 z m 0,0"
         fill="#99c1f1"
         id="path65"
         style="display:inline;fill:#bfc8d2;fill-opacity:1" /><path
         d="m 18,99 c 1.65625,0 3,1.34375 3,3 0,1.65625 -1.34375,3 -3,3 -1.65625,0 -3,-1.34375 -3,-3 0,-1.65625 1.34375,-3 3,-3 z m 0,0"
         fill="#99c1f1"
         id="path66"
         style="display:inline;fill:#bfc8d2;fill-opacity:1" /><path
         d="m 102,99 c 1.65625,0 3,1.34375 3,3 0,1.65625 -1.34375,3 -3,3 -1.65625,0 -3,-1.34375 -3,-3 0,-1.65625 1.34375,-3 3,-3 z m 0,0"
         fill="#99c1f1"
         id="path67"
         style="display:inline;fill:#bfc8d2;fill-opacity:1" /></g></g><g
     transform="matrix(5.3851246,0,0,5.3851246,-76.341714,-18.117903)"
     id="g12"
     style="display:inline"
     inkscape:label="cube"><path
       transform="matrix(0.96974999,0,0,0.96974999,13.4521,2.4697)"
       d="m 6.3498,2.9393 c -0.34105,0 -2.7827,1.4099 -2.9532,1.7052 L 6.3498,9.7602 9.3036,4.6445 C 9.13308,4.34915 6.6909,2.9393 6.3498,2.9393 Z"
       fill="#ffffff"
       stroke-width="0.26458"
       id="path11-6"
       style="display:inline" /><path
       d="m 16.746,6.9737 2.8639,4.9609 c 0.33073,0 2.6991,-1.3672 2.8644,-1.6536 0.16536,-0.28642 0.16536,-3.0209 0,-3.3073 l -2.8644,1.6536 z"
       fill="#dfdfdf"
       stroke-width="0.26458"
       id="path12-7" /><path
       d="m 3.8299,4.8948 c -0.14551,0.25205 -0.14553,2.6584 0,2.9104 0.14553,0.25204 2.2292,1.4552 2.5203,1.4552 V 6.35 Z"
       fill="#d6d2d2"
       stroke-width="0.26458"
       id="path13-5"
       style="display:inline"
       transform="matrix(1.1363636,0,0,1.1363636,12.393182,1.4114773)" /></g><g
     fill="#62a0ea"
     id="g85"
     style="display:inline;fill:#b5b9c4;fill-opacity:0.67384923"
     transform="matrix(0.36762329,0,0,0.36762329,12.925212,14.168987)"><path
       d="m 38,102 c 0,1.10547 -0.894531,2 -2,2 -1.105469,0 -2,-0.89453 -2,-2 0,-1.10547 0.894531,-2 2,-2 1.105469,0 2,0.89453 2,2 z m 0,0"
       id="path6"
       style="fill:#b5b9c4;fill-opacity:0.67384923" /><path
       d="m 30,102 c 0,1.10547 -0.894531,2 -2,2 -1.105469,0 -2,-0.89453 -2,-2 0,-1.10547 0.894531,-2 2,-2 1.105469,0 2,0.89453 2,2 z m 0,0"
       id="path7"
       style="fill:#b5b9c4;fill-opacity:0.67384923" /><path
       d="m 54,102 c 0,1.10547 -0.894531,2 -2,2 -1.105469,0 -2,-0.89453 -2,-2 0,-1.10547 0.894531,-2 2,-2 1.105469,0 2,0.89453 2,2 z m 0,0"
       id="path8"
       style="fill:#b5b9c4;fill-opacity:0.67384923" /><path
       d="m 46,102 c 0,1.10547 -0.894531,2 -2,2 -1.105469,0 -2,-0.89453 -2,-2 0,-1.10547 0.894531,-2 2,-2 1.105469,0 2,0.89453 2,2 z m 0,0"
       id="path9"
       style="fill:#b5b9c4;fill-opacity:0.67384923" /><path
       d="m 70,102 c 0,1.10547 -0.894531,2 -2,2 -1.105469,0 -2,-0.89453 -2,-2 0,-1.10547 0.894531,-2 2,-2 1.105469,0 2,0.89453 2,2 z m 0,0"
       id="path10"
       style="fill:#b5b9c4;fill-opacity:0.67384923" /><path
       d="m 62,102 c 0,1.10547 -0.894531,2 -2,2 -1.105469,0 -2,-0.89453 -2,-2 0,-1.10547 0.894531,-2 2,-2 1.105469,0 2,0.89453 2,2 z m 0,0"
       id="path11"
       style="fill:#b5b9c4;fill-opacity:0.67384923" /><path
       d="m 86,102 c 0,1.10547 -0.894531,2 -2,2 -1.105469,0 -2,-0.89453 -2,-2 0,-1.10547 0.894531,-2 2,-2 1.105469,0 2,0.89453 2,2 z m 0,0"
       id="path12"
       style="fill:#b5b9c4;fill-opacity:0.67384923" /><path
       d="m 78,102 c 0,1.10547 -0.894531,2 -2,2 -1.105469,0 -2,-0.89453 -2,-2 0,-1.10547 0.894531,-2 2,-2 1.105469,0 2,0.89453 2,2 z m 0,0"
       id="path13"
       style="fill:#b5b9c4;fill-opacity:0.67384923" /><path
       d="m 94,102 c 0,1.10547 -0.894531,2 -2,2 -1.105469,0 -2,-0.89453 -2,-2 0,-1.10547 0.894531,-2 2,-2 1.105469,0 2,0.89453 2,2 z m 0,0"
       id="path14"
       style="fill:#b5b9c4;fill-opacity:0.67384923" /><path
       d="m 18,38 c -1.105469,0 -2,-0.894531 -2,-2 0,-1.105469 0.894531,-2 2,-2 1.105469,0 2,0.894531 2,2 0,1.105469 -0.894531,2 -2,2 z m 0,0"
       id="path15"
       style="fill:#b5b9c4;fill-opacity:0.67384923" /><path
       d="m 18,30 c -1.105469,0 -2,-0.894531 -2,-2 0,-1.105469 0.894531,-2 2,-2 1.105469,0 2,0.894531 2,2 0,1.105469 -0.894531,2 -2,2 z m 0,0"
       id="path16"
       style="fill:#b5b9c4;fill-opacity:0.67384923" /><path
       d="m 18,54 c -1.105469,0 -2,-0.894531 -2,-2 0,-1.105469 0.894531,-2 2,-2 1.105469,0 2,0.894531 2,2 0,1.105469 -0.894531,2 -2,2 z m 0,0"
       id="path17"
       style="fill:#b5b9c4;fill-opacity:0.67384923" /><path
       d="m 18,46 c -1.105469,0 -2,-0.894531 -2,-2 0,-1.105469 0.894531,-2 2,-2 1.105469,0 2,0.894531 2,2 0,1.105469 -0.894531,2 -2,2 z m 0,0"
       id="path18"
       style="fill:#b5b9c4;fill-opacity:0.67384923" /><path
       d="m 18,70 c -1.105469,0 -2,-0.894531 -2,-2 0,-1.105469 0.894531,-2 2,-2 1.105469,0 2,0.894531 2,2 0,1.105469 -0.894531,2 -2,2 z m 0,0"
       id="path19"
       style="fill:#b5b9c4;fill-opacity:0.67384923" /><path
       d="m 18,62 c -1.105469,0 -2,-0.894531 -2,-2 0,-1.105469 0.894531,-2 2,-2 1.105469,0 2,0.894531 2,2 0,1.105469 -0.894531,2 -2,2 z m 0,0"
       id="path28"
       style="fill:#b5b9c4;fill-opacity:0.67384923" /><path
       d="m 18,86 c -1.105469,0 -2,-0.894531 -2,-2 0,-1.105469 0.894531,-2 2,-2 1.105469,0 2,0.894531 2,2 0,1.105469 -0.894531,2 -2,2 z m 0,0"
       id="path38"
       style="fill:#b5b9c4;fill-opacity:0.67384923" /><path
       d="m 18,78 c -1.105469,0 -2,-0.894531 -2,-2 0,-1.105469 0.894531,-2 2,-2 1.105469,0 2,0.894531 2,2 0,1.105469 -0.894531,2 -2,2 z m 0,0"
       id="path48"
       style="fill:#b5b9c4;fill-opacity:0.67384923" /><path
       d="m 18,94 c -1.105469,0 -2,-0.894531 -2,-2 0,-1.105469 0.894531,-2 2,-2 1.105469,0 2,0.894531 2,2 0,1.105469 -0.894531,2 -2,2 z m 0,0"
       id="path58"
       style="fill:#b5b9c4;fill-opacity:0.67384923" /><path
       d="m 102,38 c -1.10547,0 -2,-0.894531 -2,-2 0,-1.105469 0.89453,-2 2,-2 1.10547,0 2,0.894531 2,2 0,1.105469 -0.89453,2 -2,2 z m 0,0"
       id="path68"
       style="fill:#b5b9c4;fill-opacity:0.67384923" /><path
       d="m 102,30 c -1.10547,0 -2,-0.894531 -2,-2 0,-1.105469 0.89453,-2 2,-2 1.10547,0 2,0.894531 2,2 0,1.105469 -0.89453,2 -2,2 z m 0,0"
       id="path69"
       style="fill:#b5b9c4;fill-opacity:0.67384923" /><path
       d="m 102,54 c -1.10547,0 -2,-0.894531 -2,-2 0,-1.105469 0.89453,-2 2,-2 1.10547,0 2,0.894531 2,2 0,1.105469 -0.89453,2 -2,2 z m 0,0"
       id="path70"
       style="fill:#b5b9c4;fill-opacity:0.67384923" /><path
       d="m 102,46 c -1.10547,0 -2,-0.894531 -2,-2 0,-1.105469 0.89453,-2 2,-2 1.10547,0 2,0.894531 2,2 0,1.105469 -0.89453,2 -2,2 z m 0,0"
       id="path71"
       style="fill:#b5b9c4;fill-opacity:0.67384923" /><path
       d="m 102,70 c -1.10547,0 -2,-0.894531 -2,-2 0,-1.105469 0.89453,-2 2,-2 1.10547,0 2,0.894531 2,2 0,1.105469 -0.89453,2 -2,2 z m 0,0"
       id="path72"
       style="fill:#b5b9c4;fill-opacity:0.67384923" /><path
       d="m 102,62 c -1.10547,0 -2,-0.894531 -2,-2 0,-1.105469 0.89453,-2 2,-2 1.10547,0 2,0.894531 2,2 0,1.105469 -0.89453,2 -2,2 z m 0,0"
       id="path73"
       style="fill:#b5b9c4;fill-opacity:0.67384923" /><path
       d="m 102,86 c -1.10547,0 -2,-0.894531 -2,-2 0,-1.105469 0.89453,-2 2,-2 1.10547,0 2,0.894531 2,2 0,1.105469 -0.89453,2 -2,2 z m 0,0"
       id="path74"
       style="fill:#b5b9c4;fill-opacity:0.67384923" /><path
       d="m 102,78 c -1.10547,0 -2,-0.894531 -2,-2 0,-1.105469 0.89453,-2 2,-2 1.10547,0 2,0.894531 2,2 0,1.105469 -0.89453,2 -2,2 z m 0,0"
       id="path75"
       style="fill:#b5b9c4;fill-opacity:0.67384923" /><path
       d="m 102,94 c -1.10547,0 -2,-0.894531 -2,-2 0,-1.105469 0.89453,-2 2,-2 1.10547,0 2,0.894531 2,2 0,1.105469 -0.89453,2 -2,2 z m 0,0"
       id="path76"
       style="fill:#b5b9c4;fill-opacity:0.67384923" /><path
       d="m 38,18 c 0,1.105469 -0.894531,2 -2,2 -1.105469,0 -2,-0.894531 -2,-2 0,-1.105469 0.894531,-2 2,-2 1.105469,0 2,0.894531 2,2 z m 0,0"
       id="path77"
       style="fill:#b5b9c4;fill-opacity:0.67384923" /><path
       d="m 30,18 c 0,1.105469 -0.894531,2 -2,2 -1.105469,0 -2,-0.894531 -2,-2 0,-1.105469 0.894531,-2 2,-2 1.105469,0 2,0.894531 2,2 z m 0,0"
       id="path78"
       style="fill:#b5b9c4;fill-opacity:0.67384923" /><path
       d="m 54,18 c 0,1.105469 -0.894531,2 -2,2 -1.105469,0 -2,-0.894531 -2,-2 0,-1.105469 0.894531,-2 2,-2 1.105469,0 2,0.894531 2,2 z m 0,0"
       id="path79"
       style="fill:#b5b9c4;fill-opacity:0.67384923" /><path
       d="m 46,18 c 0,1.105469 -0.894531,2 -2,2 -1.105469,0 -2,-0.894531 -2,-2 0,-1.105469 0.894531,-2 2,-2 1.105469,0 2,0.894531 2,2 z m 0,0"
       id="path80"
       style="fill:#b5b9c4;fill-opacity:0.67384923" /><path
       d="m 70,18 c 0,1.105469 -0.894531,2 -2,2 -1.105469,0 -2,-0.894531 -2,-2 0,-1.105469 0.894531,-2 2,-2 1.105469,0 2,0.894531 2,2 z m 0,0"
       id="path81"
       style="fill:#b5b9c4;fill-opacity:0.67384923" /><path
       d="m 62,18 c 0,1.105469 -0.894531,2 -2,2 -1.105469,0 -2,-0.894531 -2,-2 0,-1.105469 0.894531,-2 2,-2 1.105469,0 2,0.894531 2,2 z m 0,0"
       id="path82"
       style="fill:#b5b9c4;fill-opacity:0.67384923" /><path
       d="m 86,18 c 0,1.105469 -0.894531,2 -2,2 -1.105469,0 -2,-0.894531 -2,-2 0,-1.105469 0.894531,-2 2,-2 1.105469,0 2,0.894531 2,2 z m 0,0"
       id="path83"
       style="fill:#b5b9c4;fill-opacity:0.67384923" /><path
       d="m 78,18 c 0,1.105469 -0.894531,2 -2,2 -1.105469,0 -2,-0.894531 -2,-2 0,-1.105469 0.894531,-2 2,-2 1.105469,0 2,0.894531 2,2 z m 0,0"
       id="path84"
       style="fill:#b5b9c4;fill-opacity:0.67384923" /><path
       d="m 94,18 c 0,1.105469 -0.894531,2 -2,2 -1.105469,0 -2,-0.894531 -2,-2 0,-1.105469 0.894531,-2 2,-2 1.105469,0 2,0.894531 2,2 z m 0,0"
       id="path85"
       style="fill:#b5b9c4;fill-opacity:0.67384923" /><path
       d="m 102,96 c 3.3125,0 6,2.6875 6,6 0,3.3125 -2.6875,6 -6,6 -3.3125,0 -6,-2.6875 -6,-6 0,-3.3125 2.6875,-6 6,-6 z m 0,0"
       fill="#3584e4"
       id="path2"
       style="display:inline;fill:#b5b9c4;fill-opacity:0.67384923" /><path
       d="m 102,12 c 3.3125,0 6,2.6875 6,6 0,3.3125 -2.6875,6 -6,6 -3.3125,0 -6,-2.6875 -6,-6 0,-3.3125 2.6875,-6 6,-6 z m 0,0"
       fill="#3584e4"
       id="path3"
       style="display:inline;fill:#b5b9c4;fill-opacity:0.67384923" /><path
       d="m 18,96 c 3.3125,0 6,2.6875 6,6 0,3.3125 -2.6875,6 -6,6 -3.3125,0 -6,-2.6875 -6,-6 0,-3.3125 2.6875,-6 6,-6 z m 0,0"
       fill="#3584e4"
       id="path4"
       style="display:inline;fill:#b5b9c4;fill-opacity:0.67384923" /><path
       d="m 18,12 c 3.3125,0 6,2.6875 6,6 0,3.3125 -2.6875,6 -6,6 -3.3125,0 -6,-2.6875 -6,-6 0,-3.3125 2.6875,-6 6,-6 z m 0,0"
       fill="#3584e4"
       id="path5"
       style="display:inline;fill:#b5b9c4;fill-opacity:0.67384923" /></g></svg>
