<?xml version="1.0" encoding="UTF-8" standalone="no"?>
<svg
   width="64"
   height="64"
   version="1.1"
   viewBox="0 0 16.933 16.933"
   id="svg3"
   sodipodi:docname="ProtonPlus.svg"
   inkscape:version="1.3.2 (091e20ef0f, 2023-11-25)"
   xmlns:inkscape="http://www.inkscape.org/namespaces/inkscape"
   xmlns:sodipodi="http://sodipodi.sourceforge.net/DTD/sodipodi-0.dtd"
   xmlns="http://www.w3.org/2000/svg"
   xmlns:svg="http://www.w3.org/2000/svg"
   xmlns:rdf="http://www.w3.org/1999/02/22-rdf-syntax-ns#"
   xmlns:cc="http://creativecommons.org/ns#"
   xmlns:dc="http://purl.org/dc/elements/1.1/">
  <sodipodi:namedview
     id="namedview3"
     pagecolor="#505050"
     bordercolor="#ffffff"
     borderopacity="1"
     inkscape:showpageshadow="0"
     inkscape:pageopacity="0"
     inkscape:pagecheckerboard="1"
     inkscape:deskcolor="#505050"
     inkscape:zoom="4.0000002"
     inkscape:cx="21.749999"
     inkscape:cy="-5.8749997"
     inkscape:window-width="1427"
     inkscape:window-height="977"
     inkscape:window-x="26"
     inkscape:window-y="23"
     inkscape:window-maximized="0"
     inkscape:current-layer="svg3" />
  <defs
     id="defs2">
    <filter
       id="filter1057"
       x="-0.026999999"
       y="-0.026999999"
       width="1.054"
       height="1.054"
       color-interpolation-filters="sRGB">
      <feGaussianBlur
         stdDeviation="0.61875"
         id="feGaussianBlur1" />
    </filter>
    <linearGradient
       id="linearGradient1053"
       x1="-127"
       x2="-72"
       y1="60"
       y2="5"
       gradientTransform="matrix(.26458 0 0 .26458 21.696 6.8009)"
       gradientUnits="userSpaceOnUse">
      <stop
         stop-color="#02db96"
         offset="0"
         id="stop1"
         style="stop-color:#02c0db;stop-opacity:1;" />
      <stop
         stop-color="#13d39b"
         offset="1"
         id="stop2"
         style="stop-color:#13d3c7;stop-opacity:1;" />
    </linearGradient>
  </defs>
  <metadata
     id="metadata2">
    <rdf:RDF>
      <cc:Work
         rdf:about="">
        <dc:format>image/svg+xml</dc:format>
        <dc:type
           rdf:resource="http://purl.org/dc/dcmitype/StillImage" />
      </cc:Work>
    </rdf:RDF>
  </metadata>
  <g
     transform="translate(13.097 -6.9359)"
     id="g3">
    <rect
       transform="matrix(.26458 0 0 .26458 -13.097 6.9359)"
       x="4.5"
       y="4.5"
       width="55"
       height="55"
       ry="15"
       fill="#141414"
       filter="url(#filter1057)"
       opacity=".3"
       stroke-linecap="round"
       stroke-width="2.7444"
       id="rect2" />
    <rect
       x="-11.906"
       y="8.1265"
       width="14.552"
       height="14.552"
       ry="3.9687"
       fill="url(#linearGradient1053)"
       stroke-linecap="round"
       stroke-width=".72611"
       id="rect3" />
    <path
       d="m -2.9044116,20.071172 c -1.0726986,0.0233 -1.4534032,-0.394529 -2.7576884,-2.245472 -0.41309,-0.61352 -0.83569,-1.3707 -1.1116,-1.992 -0.055229,-0.12495 -0.07547,-0.15494 -0.092464,-0.13695 -0.033237,0.03574 -0.27363,0.55854 -0.40034,0.87066 -0.21292,0.52554 -0.36311,1.0263 -0.44908,1.4987 -0.054978,0.30263 -0.059976,0.88916 -0.00875,1.0708 0.11895,0.42209 0.37711,0.59727 0.7797,0.5298 0.28988,-0.04848 0.64124,-0.20742 1.0139,-0.45858 0.16544,-0.11171 0.20917,-0.13295 0.27316,-0.1332 0.097713,-7.4e-4 0.17093,0.05248 0.20492,0.14944 0.022741,0.06423 0.022741,0.08297 -5.027e-4,0.1442 -0.022492,0.05898 -0.060976,0.09371 -0.23566,0.21242 -0.24141,0.16344 -0.654,0.37436 -0.86516,0.44183 -0.5533,0.17693 -0.98388,0.11221 -1.287,-0.19393 -0.27863,-0.28088 -0.39859,-0.73496 -0.36161,-1.3687 0.048231,-0.82468 0.41058,-1.9502 0.98338,-3.0538 l 0.1437,-0.27638 -0.10846,-0.29363 c -0.10396,-0.28088 -0.30914,-0.93215 -0.30914,-0.98062 0,-0.03549 -0.062976,-0.02824 -0.33838,0.03948 -0.631,0.15519 -1.1001,0.35288 -1.4362,0.60526 -0.66101,0.49607 -0.48607,1.0556 0.5048,1.6129 0.15744,0.08872 0.19393,0.13645 0.19393,0.25465 0,0.06173 -0.011496,0.08697 -0.061976,0.13744 -0.10821,0.10846 -0.20917,0.08572 -0.54353,-0.12145 -0.48382,-0.29988 -0.7897,-0.64151 -0.8971503,-1.0016 -0.03948,-0.13145 -0.03948,-0.39634 0,-0.5288 0.05698,-0.19268 0.1531903,-0.34586 0.3266303,-0.52054 0.3891,-0.39134 1.0346,-0.69173 1.9193,-0.89366 0.18018,-0.04124 0.22191,-0.05673 0.21492,-0.07972 -0.0045,-0.01549 -0.02499,-0.1187 -0.045482,-0.22891 -0.12045,-0.6455 -0.12395,-1.3855 -0.009,-1.7958 0.13245,-0.47331 0.37285,-0.75496 0.7557,-0.88641 0.15619,-0.05373 0.46908,-0.04498 0.68374,0.01849 0.21567,0.06423 0.48331,0.19618 0.71998,0.35486 0.28239,0.18893 0.36536,0.26816 0.37735,0.35962 0.02749,0.20992 -0.18943,0.32314 -0.36661,0.19118 -0.55478,-0.41333 -0.95112,-0.57052 -1.2688,-0.50356 -0.23066,0.04873 -0.40685,0.28588 -0.49607,0.66725 -0.035237,0.15169 -0.039984,0.22366 -0.040235,0.60076 -2.501e-4,0.42783 0.006,0.49681 0.083968,0.94565 l 0.039235,0.22541 0.092464,-0.01124 c 0.42508,-0.05123 0.79145,-0.08697 1.0171,-0.09921 l 0.26816,-0.01424 0.041733,-0.05373 c 0.45283,-0.58227 1.1113,-1.262 1.6101,-1.6621 0.95538,-0.76671 1.7748,-1.0329 2.3384,-0.7597 0.31837,0.15419 0.5198,0.46932 0.59777,0.93588 0.05098,0.30488 0.010745,1.0261 -0.068474,1.2293 -0.02749,0.06997 -0.11546,0.1207 -0.20992,0.1207 -0.059727,0 -0.090964,-0.012 -0.13695,-0.05298 -0.054478,-0.04873 -0.059478,-0.06248 -0.058978,-0.15969 0,-0.05848 0.015494,-0.22516 0.033986,-0.3706 0.05398,-0.42283 0.016994,-0.81344 -0.098462,-1.0396 -0.055978,-0.10996 -0.17043,-0.22691 -0.26964,-0.27564 -0.074221,-0.03674 -0.11246,-0.04248 -0.28615,-0.04174 -0.18268,7.41e-4 -0.21842,0.0067 -0.39859,0.06822 -0.55729,0.18993 -1.1963,0.64725 -1.8818,1.3465 -0.1495556,0.153469 -0.2953749,0.310535 -0.43733,0.47106 l -0.19842,0.22791 0.17243,0.004 c 2.4166,0.05748 4.4532,0.61227 5.4134,1.4749 0.21592,0.19418 0.40235,0.48332 0.45633,0.70898 0.02749,0.1142 0.02799,0.33636 0.001005,0.45508 -0.047035,0.300116 -0.0868376,0.437822 -0.53971389,0.912059 -0.13252733,0.09165 -0.22086031,0.105831 -0.30722331,0.07803 -0.0956134,-0.02574 -0.14120326,-0.104648 -0.14129509,-0.203667 0.0278846,-0.105466 0.06802821,-0.124485 0.20267352,-0.252361 0.09754273,-0.09622 0.27320195,-0.301151 0.33070839,-0.497229 0.0568178,-0.289459 0.0512071,-0.379444 -0.0357066,-0.537582 -0.077973,-0.15094 -0.33539,-0.4091 -0.54904,-0.55054 -1.04960002,-0.69424 -3.02740002,-1.1448 -5.02440002,-1.1451 h -0.32938 l -0.1242,0.16868 c -0.18568,0.2524 -0.58851,0.86566 -0.74896,1.1398 l -0.14145,0.24216 0.097462,0.22291 c 0.97462,2.2369 2.2383382,3.613374 2.5436723,3.868015 0.3859436,0.313083 0.5143198,0.357922 1.0234842,0.390606 0.2734334,0.0028 0.3938694,0.367826 0.01778,0.425071 z M -6.6273,14.3705 c 0.067974,-0.11021 0.20042,-0.31287 0.29438,-0.45032 0.093964,-0.13745 0.17069,-0.2554 0.17069,-0.2624 0,-0.02324 -0.86143,0.06398 -0.88741,0.08997 -0.015743,0.01574 0.035986,0.20767 0.15069,0.56055 0.083468,0.2564 0.10596,0.30864 0.12495,0.28789 0.012496,-0.01375 0.07847,-0.11546 0.14669,-0.22566 z m -2.8904129,-1.537372 c -0.2739,-0.09771 -0.43384,-0.32636 -0.43034,-0.61426 0.00201,-0.15094 0.036237,-0.2544 0.12445,-0.37436 0.22341,-0.30438 0.67974,-0.33912 0.95464,-0.07247 0.31538,0.30612 0.22217,0.85267 -0.17718,1.0353 -0.13745,0.06272 -0.33713,0.07372 -0.47157,0.02574 z"
       fill="#ffffff"
       stroke="#ffffff"
       stroke-width="0.072472"
       id="path3"
       sodipodi:nodetypes="cccccccccccccccccccscccscccccccccccccccccccccccccccsccccccccccccccccccccccccccccccccscccccccccccc" />
  </g>
  <path
     d="m 11.411323,8.150594 c 0.02043,0.01324 0.0078,0.102308 -0.0597,0.4180856 -0.01389,0.065105 -0.01933,0.092357 -0.0487,0.243687 -0.0087,0.044676 -0.03403,0.1709059 -0.05633,0.2804839 -0.0223,0.1096188 -0.04054,0.213795 -0.04054,0.2315028 0,0.031555 0.01243,0.032248 0.595084,0.032248 h 0.595084 l -0.01,0.069042 c -0.01085,0.075141 -0.01105,0.076194 -0.09983,0.5158042 -0.07741,0.3833595 -0.08728,0.4336405 -0.09967,0.5074365 -0.01588,0.09488 -0.0029,0.09293 -0.640044,0.09752 l -0.590657,0.0043 -0.05385,0.268056 c -0.02961,0.14743 -0.06178,0.308264 -0.07144,0.357408 -0.0097,0.04915 -0.02457,0.122249 -0.03306,0.162457 -0.02474,0.116686 -0.04322,0.213795 -0.0556,0.292425 -0.0064,0.04021 -0.01877,0.08225 -0.02757,0.09341 -0.01885,0.02389 -1.157513,0.03013 -1.1721752,0.0065 -0.00471,-0.0076 0.02067,-0.155633 0.056374,-0.328977 0.035704,-0.173302 0.072701,-0.355337 0.0822,-0.404479 0.00955,-0.04915 0.023276,-0.118595 0.030539,-0.154336 0.023719,-0.116361 0.048538,-0.259486 0.048659,-0.280239 4.06e-5,-0.01588 -0.1277737,-0.02031 -0.5852957,-0.02031 -0.6652654,0 -0.6186406,0.01141 -0.585255,-0.143532 0.029139,-0.135287 0.04493,-0.211358 0.064667,-0.311432 C 8.7064014,9.8228073 8.786373,9.424948 8.7938058,9.3931471 l 0.0085,-0.036554 0.5886258,-2.439e-4 c 0.323698,-1.22e-4 0.5962213,-0.00564 0.6055621,-0.012188 0.013602,-0.00955 0.1377243,-0.5859857 0.2036823,-0.9460739 0.0074,-0.040208 0.02002,-0.1085626 0.02806,-0.1519389 0.008,-0.043376 0.02486,-0.08529 0.03732,-0.09317 0.02718,-0.017221 1.119376,-0.019495 1.145776,-0.00239"
     style="display:inline;fill:#fbfbfb;fill-rule:evenodd;stroke:none;stroke-width:0.0406145"
     id="path1" />
</svg>
