<?xml version="1.0" encoding="UTF-8" standalone="no"?>
<!-- Created with Inkscape (http://www.inkscape.org/) -->

<svg
   width="512"
   height="512"
   viewBox="0 0 512 512"
   version="1.1"
   id="svg5"
   inkscape:version="1.2.1 (9c6d41e410, 2022-07-14, custom)"
   sodipodi:docname="codium.svg"
   xml:space="preserve"
   xmlns:inkscape="http://www.inkscape.org/namespaces/inkscape"
   xmlns:sodipodi="http://sodipodi.sourceforge.net/DTD/sodipodi-0.dtd"
   xmlns:xlink="http://www.w3.org/1999/xlink"
   xmlns="http://www.w3.org/2000/svg"
   xmlns:svg="http://www.w3.org/2000/svg"><sodipodi:namedview
     id="namedview7"
     pagecolor="#505050"
     bordercolor="#eeeeee"
     borderopacity="1"
     inkscape:showpageshadow="0"
     inkscape:pageopacity="0"
     inkscape:pagecheckerboard="0"
     inkscape:deskcolor="#505050"
     inkscape:document-units="px"
     showgrid="false"
     inkscape:zoom="1.4142136"
     inkscape:cx="316.78383"
     inkscape:cy="245.01249"
     inkscape:window-width="1436"
     inkscape:window-height="1217"
     inkscape:window-x="2991"
     inkscape:window-y="825"
     inkscape:window-maximized="0"
     inkscape:current-layer="layer1" /><defs
     id="defs2"><linearGradient
       inkscape:collect="always"
       id="linearGradient289"><stop
         style="stop-color:#af82c5;stop-opacity:1;"
         offset="0"
         id="stop285" /><stop
         style="stop-color:#1ed5bc;stop-opacity:1;"
         offset="1"
         id="stop287" /></linearGradient><linearGradient
       inkscape:collect="always"
       xlink:href="#linearGradient289"
       id="linearGradient291"
       x1="174.01242"
       y1="79.602325"
       x2="547.99316"
       y2="541.60229"
       gradientUnits="userSpaceOnUse"
       gradientTransform="matrix(0.85083883,0,0,0.85083883,38.185679,38.185611)" /></defs><g
     inkscape:label="Layer 1"
     inkscape:groupmode="layer"
     id="layer1"
     transform="matrix(1.0662281,0,0,1.0662281,-16.954572,-16.954542)"><ellipse
       style="fill:url(#linearGradient291);stroke-width:0.955569"
       id="path175"
       cx="256.00281"
       cy="256.00235"
       rx="217.80656"
       ry="217.80621"
       inkscape:label="background"
       sodipodi:insensitive="true" /><path
       style="fill:#e6e6e6;stroke-width:0.322468"
       d="m 303.23441,376.94257 c -1.38213,-0.53173 -9.45877,-7.7311 -51.62261,-46.0155 -27.49127,-24.96182 -50.21483,-45.57537 -50.49679,-45.80787 -0.44416,-0.36623 -3.13342,1.57146 -20.12651,14.50178 -22.003,16.74245 -23.95046,18.17861 -25.56553,18.85343 -1.61416,0.67444 -4.52785,0.62732 -5.90289,-0.0955 -0.61758,-0.32462 -5.47718,-4.54519 -10.79912,-9.37905 -8.29911,-7.53798 -9.77361,-9.01512 -10.36023,-10.37876 -1.03026,-2.39489 -0.91685,-4.19553 0.36405,-5.78035 0.57641,-0.71318 9.87735,-9.30438 20.66875,-19.09154 18.85918,-17.10417 19.59763,-17.81662 19.02561,-18.35569 -0.32731,-0.30846 -9.37431,-8.51138 -20.10443,-18.2287 -10.73012,-9.71731 -19.84744,-18.13696 -20.26071,-18.71032 -1.2058,-1.67289 -1.263,-3.3258 -0.18371,-5.30882 0.50301,-0.92419 1.43947,-2.13617 2.08102,-2.69328 0.64155,-0.55712 4.99949,-4.43854 9.68431,-8.62538 4.68483,-4.18684 9.15889,-7.93879 9.94239,-8.33767 1.95014,-0.99282 4.88278,-0.83433 6.68988,0.36156 0.69109,0.45734 10.95398,8.17839 22.80642,17.15787 l 21.54989,16.32635 0.92972,-0.78232 c 0.51136,-0.43026 22.49032,-20.41895 48.84215,-44.4193 36.9046,-33.61146 48.40244,-43.90962 50.04529,-44.82358 2.59413,-1.4432 5.27352,-1.97218 7.97869,-1.57518 2.26975,0.33309 2.63503,0.46509 6.63553,2.39797 1.67118,0.80743 13.84595,6.68594 27.05505,13.06334 13.20911,6.3774 24.67284,12.08008 25.47497,12.67263 1.86582,1.37834 3.40323,3.67764 3.84908,5.7566 0.24707,1.15203 0.35032,26.56018 0.35032,86.2069 0,76.2375 -0.0504,84.743 -0.51089,86.29377 -0.78105,2.6301 -2.42271,4.92674 -4.72986,6.61698 -0.66544,0.4875 -13.99282,7.18124 -29.61638,14.87496 -27.49153,13.53803 -28.46525,13.98806 -30.23073,13.97179 -1.00333,-0.009 -2.56156,-0.30046 -3.46273,-0.64715 z m 7.52534,-148.27998 -0.0824,-27.37352 -35.90275,27.41442 c -29.88656,22.82062 -35.83048,27.48607 -35.47148,27.84197 0.23721,0.23514 16.39345,12.52539 35.90276,27.31166 l 35.47147,26.88413 0.0824,-27.35257 c 0.0453,-15.04392 0.0453,-39.67066 0,-54.72609 z"
       id="path313"
       inkscape:label="logo"
       sodipodi:insensitive="true" /></g></svg>
